LG_Walk_Slower01																		
version=1																		
nRows=89																		
nColumns=19																		
inDegrees=yes																		
endheader																		
time	ground_force2_vx	ground_force2_vy	ground_force2_vz	ground_force2_px	ground_force2_py	ground_force2_pz	ground_torque2_x	ground_torque2_y	ground_torque2_z	ground_force1_vx	ground_force1_vy	ground_force1_vz	ground_force1_px	ground_force1_py	ground_force1_pz	ground_torque1_x	ground_torque1_y	ground_torque1_z
6.112	-2.962717	116.816116	-7.591585	0.141919	0	-0.405207	2.00E-06	0.823167	1.00E-06	0	0	0	-0.13	0	0.305	0	0	0
6.113	-2.962717	123.35759	-7.748285	0.144286	0	-0.403071	2.00E-06	0.823167	1.00E-06	0	0	0	-0.13	0	0.305	0	0	0
6.114	-2.960552	123.35759	-7.826656	0.144286	0	-0.403071	2.00E-06	0.731758	1.00E-06	0	0	0	-0.13	0	0.305	0	0	0
6.115	-2.960552	123.35759	-8.061729	0.143178	0	-0.405292	1.00E-06	0.731758	1.00E-06	0	0	0	-0.13	0	0.305	0	0	0
6.116	-2.804127	125.046654	-8.688696	0.142182	0	-0.406496	2.00E-06	0.731758	1.00E-06	0	0	0	-0.13	0	0.305	0	0	0
6.117	-2.806292	125.401154	-8.766703	0.142182	0	-0.406426	2.00E-06	0.695787	1.00E-06	0	0	0	-0.13	0	0.305	0	0	0
6.118	-2.806292	127.1064	-9.236927	0.142111	0	-0.408058	2.00E-06	0.695787	1.00E-06	0	0	0	-0.13	0	0.305	0	0	0
6.119	-3.116976	127.794556	-9.236927	0.142001	0	-0.406426	1.00E-06	0.699877	1.00E-06	0	0	0	-0.13	0	0.305	0	0	0
6.12	-3.116976	131.741241	-9.4722	0.142001	0	-0.408961	1.00E-06	0.699877	1.00E-06	0	0	0	-0.13	0	0.305	0	0	0
6.121	-2.724834	132.457977	-9.002058	0.14106	0	-0.405497	1.00E-06	0.699877	1.00E-06	0	0	0	-0.13	0	0.305	0	0	0
6.122	-2.652033	132.588715	-9.942144	0.139915	0	-0.407461	4.00E-06	0.716271	1.00E-06	0	0	0	-0.13	0	0.305	0	0	0
6.123	-2.652033	132.593323	-9.785645	0.139915	0	-0.407088	4.00E-06	0.716271	2.00E-06	0	0	0	-0.13	0	0.305	0	0	0
6.124	-2.650591	133.630524	-9.942225	0.139915	0	-0.407088	4.00E-06	0.638661	2.00E-06	0	0	0	-0.13	0	0.305	0	0	0
6.125	-2.336302	134.477966	-10.334118	0.140039	0	-0.407088	4.00E-06	0.638661	2.00E-06	0	0	0	-0.13	0	0.305	0	0	0
6.126	-2.336302	136.705887	-10.334118	0.140039	0	-0.406842	2.00E-06	0.647053	2.00E-06	0	0	0	-0.13	0	0.305	0	0	0
6.127	-2.494167	137.577667	-10.960964	0.141386	0	-0.406445	2.00E-06	0.681448	1.00E-06	0	0	0	-0.13	0	0.305	0	0	0
6.128	-2.572739	140.155792	-11.117546	0.141386	0	-0.403807	1.00E-06	0.695908	1.00E-06	0	0	0	-0.13	0	0.305	0	0	0
6.129	-2.494167	142.220978	-11.196077	0.140922	0	-0.40297	3.00E-06	0.684557	1.00E-06	0	0	0	-0.13	0	0.305	0	0	0
6.13	-2.883423	142.390717	-11.5096	0.140922	0	-0.40297	3.00E-06	0.696983	1.00E-06	0	0	0	-0.13	0	0.305	0	0	0
6.131	-3.431988	143.054886	-12.057793	0.140922	0	-0.40477	3.00E-06	0.684557	1.00E-06	0	0	0	-0.13	0	0.305	0	0	0
6.132	-3.431988	143.749207	-12.292988	0.141034	0	-0.40477	2.00E-06	0.716262	1.00E-06	0	0	0	-0.13	0	0.305	0	0	0
6.133	-3.431988	148.052734	-12.292988	0.140779	0	-0.402012	2.00E-06	0.716262	1.00E-06	0	0	0	-0.13	0	0.305	0	0	0
6.134	-3.508394	148.052734	-12.763168	0.141465	0	-0.401803	2.00E-06	0.716262	0.00E+00	0	0	0	-0.13	0	0.305	0	0	0
6.135	-3.744833	148.915604	-13.076572	0.143435	0	-0.401803	1.00E-06	0.717524	-1.00E-06	0	0	0	-0.13	0	0.305	0	0	0
6.136	-3.743391	151.986725	-13.233313	0.143435	0	-0.403481	1.00E-06	0.696359	0.00E+00	0	0	0	-0.13	0	0.305	0	0	0
6.137	-3.822685	151.997864	-13.389856	0.142594	0	-0.403661	1.00E-06	0.704695	1.00E-06	0	0	0	-0.13	0	0.305	0	0	0
6.138	-3.822685	155.076324	-13.389856	0.140207	0	-0.403661	1.00E-06	0.704695	1.00E-06	0	0	0	-0.13	0	0.305	0	0	0
6.139	-4.052629	155.771011	-13.468267	0.140929	0	-0.40518	1.00E-06	0.704695	2.00E-06	0	0	0	-0.13	0	0.305	0	0	0
6.14	-4.289789	155.771011	-13.468588	0.140929	0	-0.40518	1.00E-06	0.812501	0.00E+00	0	0	0	-0.13	0	0.305	0	0	0
6.141	-4.289789	159.191986	-13.468588	0.140929	0	-0.40515	1.00E-06	0.747853	1.00E-06	0	0	0	-0.13	0	0.305	0	0	0
6.142	-4.680488	159.887436	-13.468588	0.142256	0	-0.40515	3.00E-06	0.786496	0.00E+00	0	0	0	-0.13	0	0.305	0	0	0
6.143	-4.680488	159.192383	-13.625048	0.140472	0	-0.40515	2.00E-06	0.747853	1.00E-06	0	0	0	-0.13	0	0.305	0	0	0
6.144	-4.602636	159.887436	-13.625048	0.140055	0	-0.404928	3.00E-06	0.704241	0.00E+00	0	0	0	-0.13	0	0.305	0	0	0
6.145	-4.599751	160.23114	-13.311764	0.140055	0	-0.403914	4.00E-06	0.691087	0	0	0	0	-0.13	0	0.305	0	0	0
6.146	-3.899092	161.265244	-13.233234	0.140055	0	-0.402879	4.00E-06	0.683914	0	0	0	0	-0.13	0	0.305	0	0	0
6.147	-3.895485	163.144501	-13.311764	0.140587	0	-0.402879	4.00E-06	0.629356	1.00E-06	0	0	0	-0.13	0	0.305	0	0	0
6.148	-3.895485	164.352966	-13.389975	0.140352	0	-0.402879	2.00E-06	0.629356	2.00E-06	0	0	0	-0.13	0	0.305	0	0	0
6.149	-3.975498	164.352966	-13.389975	0.140352	0	-0.403519	2.00E-06	0.629356	2.00E-06	0	0	0	-0.13	0	0.305	0	0	0
6.15	-4.601194	164.865204	-13.389975	0.140352	0	-0.404952	6.00E-06	0.624927	2.00E-06	0	0	0	-0.13	0	0.305	0	0	0
6.151	-4.601194	164.344101	-14.016699	0.140101	0	-0.404952	7.00E-06	0.624927	1.00E-06	0	0	0	-0.13	0	0.305	0	0	0
6.152	-4.757618	166.755997	-14.016699	0.140744	0	-0.403397	7.00E-06	0.629006	1.00E-06	0	0	0	-0.13	0	0.305	0	0	0
6.153	-4.757618	165.545593	-13.703339	0.140216	0	-0.403397	4.00E-06	0.629006	1.00E-06	0	0	0	-0.13	0	0.305	0	0	0
6.154	-4.757618	166.92691	-13.703339	0.140216	0	-0.402519	4.00E-06	0.607196	1.00E-06	0	0	0	-0.13	0	0.305	0	0	0
6.155	-4.834746	166.92691	-14.408394	0.140216	0	-0.402519	4.00E-06	0.579404	1.00E-06	0	0	0	-0.13	0	0.305	0	0	0
6.156	-5.458997	168.470154	-14.408394	0.142707	0	-0.402519	5.00E-06	0.607196	1.00E-06	0	0	0	-0.13	0	0.305	0	0	0
6.157	-5.693995	168.980484	-14.408394	0.142707	0	-0.403815	4.00E-06	0.551486	0.00E+00	0	0	0	-0.13	0	0.305	0	0	0
6.158	-5.850417	168.980484	-14.643705	0.141336	0	-0.403815	4.00E-06	0.617383	2.00E-06	0	0	0	-0.13	0	0.305	0	0	0
6.159	-5.927547	168.980484	-14.721996	0.141336	0	-0.403815	3.00E-06	0.627747	0.00E+00	0	0	0	-0.13	0	0.305	0	0	0
6.16	-5.927547	168.992828	-14.643705	0.141342	0	-0.40296	3.00E-06	0.627747	0.00E+00	0	0	0	-0.13	0	0.305	0	0	0
6.161	-5.927547	169.326477	-14.408514	0.141342	0	-0.402476	3.00E-06	0.627747	0	0	0	0	-0.13	0	0.305	0	0	0
6.162	-6.241117	169.326477	-13.938368	0.140618	0	-0.402476	4.00E-06	0.67208	1.00E-06	0	0	0	-0.13	0	0.305	0	0	0
6.163	-6.709664	169.326477	-13.938368	0.140618	0	-0.402686	3.00E-06	0.67208	1.00E-06	0	0	0	-0.13	0	0.305	0	0	0
6.164	-6.709664	168.124146	-13.938368	0.140618	0	-0.405113	3.00E-06	0.67208	2.00E-06	0	0	0	-0.13	0	0.305	0	0	0
6.165	-6.551798	168.828888	-14.095312	0.141187	0	-0.405113	2.00E-06	0.681826	1.00E-06	0	0	0	-0.13	0	0.305	0	0	0
6.166	-6.551798	168.124146	-13.860201	0.139612	0	-0.403872	2.00E-06	0.681826	1.00E-06	0	0	0	-0.13	0	0.305	0	0	0
6.167	-6.474669	167.431427	-13.93825	0.141216	0	-0.403312	2.00E-06	0.542552	1.00E-06	0	0	0	-0.13	0	0.305	0	0	0
6.168	-6.629648	167.431427	-13.78175	0.141216	0	-0.403312	3.00E-06	0.542552	1.00E-06	0	0	0	-0.13	0	0.305	0	0	0
6.169	-6.158936	167.098526	-13.78175	0.141216	0	-0.403312	3.00E-06	0.591979	1.00E-06	0	0	0	-0.13	0	0.305	0	0	0
6.17	-6.629648	166.242981	-13.625168	0.141677	0	-0.403881	2.00E-06	0.646728	1.00E-06	0	0	0	-0.13	0	0.305	0	0	0
6.171	-6.863201	166.242981	-13.625168	0.141005	0	-0.40409	2.00E-06	0.617852	1.00E-06	0	0	0	-0.13	0	0.305	0	0	0
6.172	-6.863201	167.613068	-13.625168	0.141005	0	-0.40409	2.00E-06	0.617852	0.00E+00	0	0	0	-0.13	0	0.305	0	0	0
6.173	-6.863201	167.97377	-13.233353	0.140899	0	-0.39991	2.00E-06	0.617852	0	0	0	0	-0.13	0	0.305	0	0	0
6.174	-6.781743	167.97377	-13.233353	0.140899	0	-0.39991	6.00E-06	0.490728	0.00E+00	0	0	0	-0.13	0	0.305	0	0	0
6.175	-7.097477	167.469223	-13.546677	0.141219	0	-0.400659	5.00E-06	0.632424	1.00E-06	0	0	0	-0.13	0	0.305	0	0	0
6.176	-7.097477	166.418121	-13.703459	0.141219	0	-0.401199	5.00E-06	0.630415	1.00E-06	0	0	0	-0.13	0	0.305	0	0	0
6.177	-7.877429	167.114746	-13.703459	0.141865	0	-0.401199	4.00E-06	0.630415	0.00E+00	0	0	0	-0.13	0	0.305	0	0	0
6.178	-7.954557	165.737732	-13.624886	0.141865	0	-0.402269	2.00E-06	0.630415	0	0	0	0	-0.13	0	0.305	0	0	0
6.179	-8.113147	167.114746	-13.624886	0.141865	0	-0.402269	4.00E-06	0.642242	2.00E-06	0	0	0	-0.13	0	0.305	0	0	0
6.18	-8.267404	167.11937	-13.624886	0.141899	0	-0.401579	4.00E-06	0.675623	2.00E-06	0	0	0	-0.13	0	0.305	0	0	0
6.181	-8.660268	167.11937	-13.546797	0.141862	0	-0.401579	5.00E-06	0.808772	2.00E-06	0	0	0	-0.13	0	0.305	0	0	0
6.182	-8.268848	167.624268	-13.546515	0.141862	0	-0.402678	6.00E-06	0.675623	1.00E-06	0	0	0	-0.13	0	0.305	0	0	0
6.183	-8.738119	167.624268	-13.546515	0.141862	0	-0.402678	6.00E-06	0.749255	1.00E-06	0	0	0	-0.13	0	0.305	0	0	0
6.184	-8.738119	167.624268	-13.154943	0.14172	0	-0.402678	4.00E-06	0.702281	1.00E-06	0	0	0	-0.13	0	0.305	0	0	0
6.185	-8.888769	168.151947	-12.998281	0.141937	0	-0.402005	4.00E-06	0.702281	2.00E-06	0	0	0	-0.13	0	0.305	0	0	0
6.186	-9.12593	167.449158	-12.998281	0.14172	0	-0.403119	4.00E-06	0.60874	1.00E-06	0	0	0	-0.13	0	0.305	0	0	0
6.187	-9.123765	167.449158	-12.998281	0.140974	0	-0.402005	6.00E-06	0.564944	2.00E-06	0	0	0	-0.13	0	0.305	0	0	0
6.188	-9.20306	167.449158	-12.606388	0.140974	0	-0.401338	6.00E-06	0.60874	1.00E-06	0	0	0	-0.13	0	0.305	0	0	0
6.189	-9.123765	167.28215	-12.606388	0.141455	0	-0.401338	4.00E-06	0.52352	0	0	0	0	-0.13	0	0.305	0	0	0
6.19	-8.968062	168.151184	-12.998363	0.141455	0	-0.400793	4.00E-06	0.625639	0	0	0	0	-0.13	0	0.305	0	0	0
6.191	-8.968062	168.151184	-13.076735	0.141455	0	-0.404193	3.00E-06	0.605436	2.00E-06	0	0	0	-0.13	0	0.305	0	0	0
6.192	-9.047359	168.151184	-13.076735	0.140947	0	-0.40355	3.00E-06	0.621939	2.00E-06	0	0	0	-0.13	0	0.305	0	0	0
6.193	-9.904439	168.312775	-12.841539	0.140684	0	-0.40355	3.00E-06	0.621939	2.00E-06	0	0	0	-0.13	0	0.305	0	0	0
6.194	-10.060141	169.350769	-12.684757	0.140585	0	-0.401532	4.00E-06	0.626654	0	0	0	0	-0.13	0	0.305	0	0	0
6.195	-10.060141	169.526657	-12.528259	0.140585	0	-0.400933	5.00E-06	0.626654	0	0	0	0	-0.13	0	0.305	0	0	0
6.196	-10.057976	169.531677	-12.528259	0.14219	0	-0.400933	5.00E-06	0.533407	0.00E+00	0	0	0	-0.13	0	0.305	0	0	0
6.197	-10.057976	172.443512	-12.684797	0.14219	0	-0.400223	5.00E-06	0.533407	1.00E-06	0	0	0	-0.13	0	0.305	0	0	0
6.198	-10.375154	172.443512	-12.763212	0.14219	0	-0.399991	4.00E-06	0.652121	2.00E-06	0	0	0	-0.13	0	0.305	0	0	0
6.199	-10.917946	172.095184	-12.763212	0.141922	0	-0.399991	3.00E-06	0.652121	3.00E-06	0	0	0	-0.13	0	0.305	0	0	0
6.2	-10.917946	172.095184	-12.293068	0.14288	0	-0.400027	3.00E-06	0.583734	3.00E-06	0	0	0	-0.13	0	0.305	0	0	0
